<svg xmlns="http://www.w3.org/2000/svg" xmlns:xlink="http://www.w3.org/1999/xlink" xmlns:lucid="lucid" width="1760" height="1360"><g transform="translate(0 0)" lucid:page-tab-id="0_0"><path d="M0 0h1760v1360H0z" fill="#fff"/><path d="M420 173c0-2.76 2.24-5 5-5h270c2.76 0 5 2.24 5 5v214c0 2.76-2.24 5-5 5H425c-2.76 0-5-2.24-5-5z" fill="#fff"/><path d="M420 128h280v40H420z" fill="#ccc"/><path d="M420 133c0-2.76 2.24-5 5-5h270c2.76 0 5 2.24 5 5v254c0 2.76-2.24 5-5 5H425c-2.76 0-5-2.24-5-5zM420 168h280M560 168v224" stroke="#333" fill="none"/><use xlink:href="#a" transform="matrix(1,0,0,1,430,128.00000000018207) translate(0 23.6)"/><use xlink:href="#b" transform="matrix(1,0,0,1,425,170.50000000018207) translate(0 17.1)"/><use xlink:href="#c" transform="matrix(1,0,0,1,565,170.50000000018207) translate(0 17.1)"/><use xlink:href="#d" transform="matrix(1,0,0,1,425,202.50000000018207) translate(0 17.1)"/><use xlink:href="#e" transform="matrix(1,0,0,1,565,202.50000000018207) translate(0 17.1)"/><use xlink:href="#f" transform="matrix(1,0,0,1,425,234.50000000018207) translate(0 17.1)"/><use xlink:href="#c" transform="matrix(1,0,0,1,565,234.50000000018207) translate(0 17.1)"/><use xlink:href="#g" transform="matrix(1,0,0,1,425,266.50000000018207) translate(0 17.1)"/><use xlink:href="#c" transform="matrix(1,0,0,1,565,266.50000000018207) translate(0 17.1)"/><use xlink:href="#h" transform="matrix(1,0,0,1,425,298.50000000018207) translate(0 17.1)"/><use xlink:href="#i" transform="matrix(1,0,0,1,565,298.50000000018207) translate(0 17.1)"/><use xlink:href="#j" transform="matrix(1,0,0,1,425,330.50000000018207) translate(0 17.1)"/><use xlink:href="#k" transform="matrix(1,0,0,1,565,330.50000000018207) translate(0 17.1)"/><use xlink:href="#l" transform="matrix(1,0,0,1,425,362.50000000018207) translate(0 17.1)"/><use xlink:href="#k" transform="matrix(1,0,0,1,565,362.50000000018207) translate(0 17.1)"/><path d="M880 205c0-2.76 2.24-5 5-5h270c2.76 0 5 2.24 5 5v150c0 2.76-2.24 5-5 5H885c-2.76 0-5-2.24-5-5z" fill="#fff"/><path d="M880 160h280v40H880z" fill="#ccc"/><path d="M880 165c0-2.76 2.24-5 5-5h270c2.76 0 5 2.24 5 5v190c0 2.76-2.24 5-5 5H885c-2.76 0-5-2.24-5-5zM880 200h280M1018.28 200v160" stroke="#333" fill="none"/><use xlink:href="#m" transform="matrix(1,0,0,1,890,160.00000000018207) translate(0 23.6)"/><use xlink:href="#b" transform="matrix(1,0,0,1,885,202.50000000018207) translate(0 17.1)"/><use xlink:href="#c" transform="matrix(1,0,0,1,1023.2798345758615,202.50000000018207) translate(0 17.1)"/><use xlink:href="#n" transform="matrix(1,0,0,1,885,234.50000000018207) translate(0 17.1)"/><use xlink:href="#i" transform="matrix(1,0,0,1,1023.2798345758615,234.50000000018207) translate(0 17.1)"/><use xlink:href="#o" transform="matrix(1,0,0,1,885,266.50000000018207) translate(0 17.1)"/><use xlink:href="#i" transform="matrix(1,0,0,1,1023.2798345758615,266.50000000018207) translate(0 17.1)"/><use xlink:href="#p" transform="matrix(1,0,0,1,885,298.50000000018207) translate(0 17.1)"/><use xlink:href="#q" transform="matrix(1,0,0,1,1023.2798345758615,298.50000000018207) translate(0 17.1)"/><use xlink:href="#l" transform="matrix(1,0,0,1,885,330.50000000018207) translate(0 17.1)"/><use xlink:href="#k" transform="matrix(1,0,0,1,1023.2798345758615,330.50000000018207) translate(0 17.1)"/><path d="M453.15 76c0-4.42 3.58-8 8-8h836.75c4.4 0 8 3.58 8 8v25.16c0 4.4-3.6 8-8 8H461.15c-4.42 0-8-3.6-8-8z" stroke="#000" stroke-opacity="0" stroke-width="2" fill="#fff" fill-opacity="0"/><use xlink:href="#r" transform="matrix(1,0,0,1,457.1465527853429,71.99999999994924) translate(158.27049382716046 25.782777777777778)"/><path d="M628.64 107.8h505.86M628.66 107.8h-1.02M1134.47 107.8h1.03" stroke="#a9afb8" stroke-width="2" fill="none"/><path d="M453.15 117.16c0-4.42 3.58-8 8-8h837.7c4.42 0 8 3.58 8 8V120c0 4.42-3.58 8-8 8h-837.7c-4.42 0-8-3.58-8-8z" stroke="#000" stroke-opacity="0" stroke-width="2" fill="#fff" fill-opacity="0"/><use xlink:href="#s" transform="matrix(1,0,0,1,457.1465527853434,113.15522395684805) translate(316.87774691358027 14.917037037037037)"/><use xlink:href="#t" transform="matrix(1,0,0,1,457.1465527853434,113.15522395684805) translate(367.78042181069964 14.917037037037037)"/><use xlink:href="#u" transform="matrix(1,0,0,1,457.1465527853434,113.15522395684805) translate(411.96972222222223 14.917037037037037)"/><use xlink:href="#v" transform="matrix(1,0,0,1,457.1465527853434,113.15522395684805) translate(424.41920781893003 14.917037037037037)"/><use xlink:href="#w" transform="matrix(1,0,0,1,457.1465527853434,113.15522395684805) translate(476.25665637860084 14.917037037037037)"/><use xlink:href="#x" transform="matrix(1,0,0,1,457.1465527853434,113.15522395684805) translate(501.7504835390946 14.917037037037037)"/><path d="M1300 189c0-2.76 2.24-5 5-5h270c2.76 0 5 2.24 5 5v182c0 2.76-2.24 5-5 5h-270c-2.76 0-5-2.24-5-5z" fill="#fff"/><path d="M1300 144h280v40h-280z" fill="#ccc"/><path d="M1300 149c0-2.76 2.24-5 5-5h270c2.76 0 5 2.24 5 5v222c0 2.76-2.24 5-5 5h-270c-2.76 0-5-2.24-5-5zM1300 184h280M1438.28 184v192" stroke="#333" fill="none"/><use xlink:href="#y" transform="matrix(1,0,0,1,1310,144.00000000018207) translate(0 23.6)"/><use xlink:href="#b" transform="matrix(1,0,0,1,1305,186.50000000018207) translate(0 17.1)"/><use xlink:href="#i" transform="matrix(1,0,0,1,1443.2798345758615,186.50000000018207) translate(0 17.1)"/><use xlink:href="#z" transform="matrix(1,0,0,1,1305,218.50000000018207) translate(0 17.1)"/><use xlink:href="#e" transform="matrix(1,0,0,1,1443.2798345758615,218.50000000018207) translate(0 17.1)"/><use xlink:href="#d" transform="matrix(1,0,0,1,1305,250.50000000018207) translate(0 17.1)"/><use xlink:href="#e" transform="matrix(1,0,0,1,1443.2798345758615,250.50000000018207) translate(0 17.1)"/><use xlink:href="#h" transform="matrix(1,0,0,1,1305,282.50000000018207) translate(0 17.1)"/><use xlink:href="#i" transform="matrix(1,0,0,1,1443.2798345758615,282.50000000018207) translate(0 17.1)"/><use xlink:href="#j" transform="matrix(1,0,0,1,1305,314.50000000018207) translate(0 17.1)"/><use xlink:href="#k" transform="matrix(1,0,0,1,1443.2798345758615,314.50000000018207) translate(0 17.1)"/><use xlink:href="#l" transform="matrix(1,0,0,1,1305,346.50000000018207) translate(0 17.1)"/><use xlink:href="#k" transform="matrix(1,0,0,1,1443.2798345758615,346.50000000018207) translate(0 17.1)"/><path d="M1300 505c0-2.76 2.24-5 5-5h270c2.76 0 5 2.24 5 5v214c0 2.76-2.24 5-5 5h-270c-2.76 0-5-2.24-5-5z" fill="#fff"/><path d="M1300 460h280v40h-280z" fill="#ccc"/><path d="M1300 465c0-2.76 2.24-5 5-5h270c2.76 0 5 2.24 5 5v254c0 2.76-2.24 5-5 5h-270c-2.76 0-5-2.24-5-5zM1300 500h280M1468.88 500v224" stroke="#333" fill="none"/><use xlink:href="#A" transform="matrix(1,0,0,1,1310,460) translate(0 23.6)"/><use xlink:href="#b" transform="matrix(1,0,0,1,1305,502.5) translate(0 17.1)"/><use xlink:href="#i" transform="matrix(1,0,0,1,1473.8804863582445,502.5) translate(0 17.1)"/><use xlink:href="#d" transform="matrix(1,0,0,1,1305,534.5) translate(0 17.1)"/><use xlink:href="#e" transform="matrix(1,0,0,1,1473.8804863582445,534.5) translate(0 17.1)"/><use xlink:href="#B" transform="matrix(1,0,0,1,1305,566.5) translate(0 17.1)"/><use xlink:href="#e" transform="matrix(1,0,0,1,1473.8804863582445,566.5) translate(0 17.1)"/><use xlink:href="#C" transform="matrix(1,0,0,1,1305,598.5) translate(0 17.1)"/><use xlink:href="#i" transform="matrix(1,0,0,1,1473.8804863582445,598.5) translate(0 17.1)"/><use xlink:href="#D" transform="matrix(1,0,0,1,1305,630.5) translate(0 17.1)"/><use xlink:href="#E" transform="matrix(1,0,0,1,1473.8804863582445,630.5) translate(0 17.1)"/><use xlink:href="#j" transform="matrix(1,0,0,1,1305,662.5) translate(0 17.1)"/><use xlink:href="#k" transform="matrix(1,0,0,1,1473.8804863582445,662.5) translate(0 17.1)"/><use xlink:href="#l" transform="matrix(1,0,0,1,1305,694.5) translate(0 17.1)"/><use xlink:href="#k" transform="matrix(1,0,0,1,1473.8804863582445,694.5) translate(0 17.1)"/><path d="M900 593c0-2.76 2.24-5 5-5h270c2.76 0 5 2.24 5 5v182c0 2.76-2.24 5-5 5H905c-2.76 0-5-2.24-5-5z" fill="#fff"/><path d="M900 548h280v40H900z" fill="#ccc"/><path d="M900 553c0-2.76 2.24-5 5-5h270c2.76 0 5 2.24 5 5v222c0 2.76-2.24 5-5 5H905c-2.76 0-5-2.24-5-5zM900 588h280M1019.65 588v192" stroke="#333" fill="none"/><use xlink:href="#F" transform="matrix(1,0,0,1,910,548) translate(0 23.6)"/><use xlink:href="#b" transform="matrix(1,0,0,1,905,590.5) translate(0 17.1)"/><use xlink:href="#i" transform="matrix(1,0,0,1,1024.6515421115066,590.5) translate(0 17.1)"/><use xlink:href="#n" transform="matrix(1,0,0,1,905,622.5) translate(0 17.1)"/><use xlink:href="#i" transform="matrix(1,0,0,1,1024.6515421115066,622.5) translate(0 17.1)"/><use xlink:href="#G" transform="matrix(1,0,0,1,905,654.5) translate(0 17.1)"/><use xlink:href="#i" transform="matrix(1,0,0,1,1024.6515421115066,654.5) translate(0 17.1)"/><use xlink:href="#h" transform="matrix(1,0,0,1,905,686.5) translate(0 17.1)"/><use xlink:href="#i" transform="matrix(1,0,0,1,1024.6515421115066,686.5) translate(0 17.1)"/><use xlink:href="#j" transform="matrix(1,0,0,1,905,718.5) translate(0 17.1)"/><use xlink:href="#k" transform="matrix(1,0,0,1,1024.6515421115066,718.5) translate(0 17.1)"/><use xlink:href="#l" transform="matrix(1,0,0,1,905,750.5) translate(0 17.1)"/><use xlink:href="#k" transform="matrix(1,0,0,1,1024.6515421115066,750.5) translate(0 17.1)"/><path d="M1320 1041c0-2.77 2.24-5 5-5h270c2.76 0 5 2.23 5 5v246c0 2.76-2.24 5-5 5h-270c-2.76 0-5-2.24-5-5z" fill="#fff"/><path d="M1320 996h280v40h-280z" fill="#ccc"/><path d="M1320 1001c0-2.77 2.24-5 5-5h270c2.76 0 5 2.23 5 5v286c0 2.76-2.24 5-5 5h-270c-2.76 0-5-2.24-5-5zM1320 1036h280M1475.9 1036v256" stroke="#333" fill="none"/><use xlink:href="#H" transform="matrix(1,0,0,1,1330,995.9951760280704) translate(0 23.6)"/><use xlink:href="#b" transform="matrix(1,0,0,1,1325,1038.4951760280705) translate(0 17.1)"/><use xlink:href="#i" transform="matrix(1,0,0,1,1480.8959074733098,1038.4951760280705) translate(0 17.1)"/><use xlink:href="#d" transform="matrix(1,0,0,1,1325,1070.4951760280705) translate(0 17.1)"/><use xlink:href="#e" transform="matrix(1,0,0,1,1480.8959074733098,1070.4951760280705) translate(0 17.1)"/><use xlink:href="#B" transform="matrix(1,0,0,1,1325,1102.4951760280705) translate(0 17.1)"/><use xlink:href="#e" transform="matrix(1,0,0,1,1480.8959074733098,1102.4951760280705) translate(0 17.1)"/><use xlink:href="#I" transform="matrix(1,0,0,1,1325,1134.4951760280705) translate(0 17.1)"/><use xlink:href="#E" transform="matrix(1,0,0,1,1480.8959074733098,1134.4951760280705) translate(0 17.1)"/><use xlink:href="#J" transform="matrix(1,0,0,1,1325,1166.4951760280705) translate(0 17.1)"/><use xlink:href="#E" transform="matrix(1,0,0,1,1480.8959074733098,1166.4951760280705) translate(0 17.1)"/><use xlink:href="#K" transform="matrix(1,0,0,1,1325,1198.4951760280705) translate(0 17.1)"/><use xlink:href="#e" transform="matrix(1,0,0,1,1480.8959074733098,1198.4951760280705) translate(0 17.1)"/><use xlink:href="#L" transform="matrix(1,0,0,1,1325,1230.4951760280705) translate(0 17.1)"/><use xlink:href="#k" transform="matrix(1,0,0,1,1480.8959074733098,1230.4951760280705) translate(0 17.1)"/><use xlink:href="#l" transform="matrix(1,0,0,1,1325,1262.4951760280705) translate(0 17.1)"/><use xlink:href="#k" transform="matrix(1,0,0,1,1480.8959074733098,1262.4951760280705) translate(0 17.1)"/><path d="M520 945c0-2.76 2.24-5 5-5h270c2.76 0 5 2.24 5 5v310c0 2.76-2.24 5-5 5H525c-2.76 0-5-2.24-5-5z" fill="#fff"/><path d="M520 900h280v40H520z" fill="#ccc"/><path d="M520 905c0-2.76 2.24-5 5-5h270c2.76 0 5 2.24 5 5v350c0 2.76-2.24 5-5 5H525c-2.76 0-5-2.24-5-5zM520 940h280M684.74 940v320" stroke="#333" fill="none"/><use xlink:href="#M" transform="matrix(1,0,0,1,530,900) translate(0 23.6)"/><use xlink:href="#b" transform="matrix(1,0,0,1,525,942.5) translate(0 17.1)"/><use xlink:href="#i" transform="matrix(1,0,0,1,689.7354685646501,942.5) translate(0 17.1)"/><use xlink:href="#N" transform="matrix(1,0,0,1,525,974.5) translate(0 17.1)"/><use xlink:href="#e" transform="matrix(1,0,0,1,689.7354685646501,974.5) translate(0 17.1)"/><use xlink:href="#O" transform="matrix(1,0,0,1,525,1006.5) translate(0 17.1)"/><use xlink:href="#e" transform="matrix(1,0,0,1,689.7354685646501,1006.5) translate(0 17.1)"/><use xlink:href="#P" transform="matrix(1,0,0,1,525,1038.5) translate(0 17.1)"/><use xlink:href="#e" transform="matrix(1,0,0,1,689.7354685646501,1038.5) translate(0 17.1)"/><use xlink:href="#Q" transform="matrix(1,0,0,1,525,1070.5) translate(0 17.1)"/><use xlink:href="#R" transform="matrix(1,0,0,1,689.7354685646501,1070.5) translate(0 17.1)"/><use xlink:href="#S" transform="matrix(1,0,0,1,525,1102.5) translate(0 17.1)"/><use xlink:href="#R" transform="matrix(1,0,0,1,689.7354685646501,1102.5) translate(0 17.1)"/><use xlink:href="#T" transform="matrix(1,0,0,1,525,1134.5) translate(0 17.1)"/><use xlink:href="#R" transform="matrix(1,0,0,1,689.7354685646501,1134.5) translate(0 17.1)"/><use xlink:href="#U" transform="matrix(1,0,0,1,525,1166.5) translate(0 17.1)"/><use xlink:href="#R" transform="matrix(1,0,0,1,689.7354685646501,1166.5) translate(0 17.1)"/><use xlink:href="#j" transform="matrix(1,0,0,1,525,1198.5) translate(0 17.1)"/><use xlink:href="#k" transform="matrix(1,0,0,1,689.7354685646501,1198.5) translate(0 17.1)"/><use xlink:href="#l" transform="matrix(1,0,0,1,525,1230.5) translate(0 17.1)"/><use xlink:href="#k" transform="matrix(1,0,0,1,689.7354685646501,1230.5) translate(0 17.1)"/><path d="M520 555.63c0-2.77 2.24-5 5-5h270c2.76 0 5 2.23 5 5v278c0 2.76-2.24 5-5 5H525c-2.76 0-5-2.24-5-5z" fill="#fff"/><path d="M520 510.63h280v40H520z" fill="#ccc"/><path d="M520 515.63c0-2.77 2.24-5 5-5h270c2.76 0 5 2.23 5 5v318c0 2.76-2.24 5-5 5H525c-2.76 0-5-2.24-5-5zM520 550.63h280M678.44 550.63v288" stroke="#333" fill="none"/><use xlink:href="#V" transform="matrix(1,0,0,1,530,510.625) translate(0 23.6)"/><use xlink:href="#b" transform="matrix(1,0,0,1,525,553.125) translate(0 17.1)"/><use xlink:href="#i" transform="matrix(1,0,0,1,683.4442467378411,553.125) translate(0 17.1)"/><use xlink:href="#d" transform="matrix(1,0,0,1,525,585.125) translate(0 17.1)"/><use xlink:href="#e" transform="matrix(1,0,0,1,683.4442467378411,585.125) translate(0 17.1)"/><use xlink:href="#W" transform="matrix(1,0,0,1,525,617.125) translate(0 17.1)"/><use xlink:href="#e" transform="matrix(1,0,0,1,683.4442467378411,617.125) translate(0 17.1)"/><use xlink:href="#h" transform="matrix(1,0,0,1,525,649.125) translate(0 17.1)"/><use xlink:href="#i" transform="matrix(1,0,0,1,683.4442467378411,649.125) translate(0 17.1)"/><use xlink:href="#X" transform="matrix(1,0,0,1,525,681.125) translate(0 17.1)"/><use xlink:href="#E" transform="matrix(1,0,0,1,683.4442467378411,681.125) translate(0 17.1)"/><use xlink:href="#Y" transform="matrix(1,0,0,1,525,713.125) translate(0 17.1)"/><use xlink:href="#R" transform="matrix(1,0,0,1,683.4442467378411,713.125) translate(0 17.1)"/><use xlink:href="#Z" transform="matrix(1,0,0,1,525,745.125) translate(0 17.1)"/><use xlink:href="#aa" transform="matrix(1,0,0,1,683.4442467378411,745.125) translate(0 17.1)"/><use xlink:href="#ab" transform="matrix(1,0,0,1,525,777.125) translate(0 17.1)"/><use xlink:href="#k" transform="matrix(1,0,0,1,683.4442467378411,777.125) translate(0 17.1)"/><use xlink:href="#l" transform="matrix(1,0,0,1,525,809.125) translate(0 17.1)"/><use xlink:href="#k" transform="matrix(1,0,0,1,683.4442467378411,809.125) translate(0 17.1)"/><path d="M720.5 215.84H778c6.63 0 12 5.38 12 12v8.12c0 6.62 5.37 12 12 12h58.1" stroke="#333" fill="none"/><path d="M720.5 225.84v-20M700.5 215.84h20M879.28 257.96l-20-10 20-10M879.28 247.96h-20" stroke="#333" fill="#fff"/><path d="M1279.5 199.8H1242c-6.63 0-12 5.36-12 12v56.27c0 6.63-5.37 12-12 12h-38.1" stroke="#333" fill="none"/><path d="M1279.5 189.8v20M1299.5 199.8h-20M1160.72 270.07l20 10-20 10M1160.72 280.07h20" stroke="#333" fill="#fff"/><path d="M1440 396.5v43.6" stroke="#333" fill="none"/><path d="M1430 396.5h20M1440 376.5v20M1430 459.28l10-20 10 20M1440 459.28v-20" stroke="#333" fill="#fff"/><path d="M1200.5 668h47.5c6.63 0 12 5.4 12 12v196.75c0 6.63 5.37 12 12 12h176c6.63 0 12 5.37 12 12v75.33" stroke="#333" fill="none"/><path d="M1200.5 678v-20M1180.5 668h20M1450 995.27l10-20 10 20M1460 995.27v-20" stroke="#333" fill="#fff"/><path d="M399.5 183.73h-8c-6.63 0-12 5.37-12 12v486.9c0 6.62 5.37 12 12 12h108.6" stroke="#333" fill="none"/><path d="M399.5 173.73v20M419.5 183.73h-20M519.28 704.63l-20-10 20-10M519.28 694.63h-20" stroke="#333" fill="#fff"/><path d="M820.5 566.63H838c6.63 0 12-5.38 12-12V472c0-6.63 5.37-12 12-12h366c6.63 0 12 5.37 12 12v128c0 6.63 5.37 12 12 12h28.1" stroke="#333" fill="none"/><path d="M820.5 576.63v-20M800.5 566.63h20M1299.28 622l-20-10 20-10M1299.28 612h-20" stroke="#333" fill="#fff"/><path d="M499.5 566.63H442c-6.63 0-12 5.37-12 12V1268c0 6.63 5.37 12 12 12h786c6.63 0 12-5.37 12-12v-108c0-6.63 5.37-12 12-12h48.1" stroke="#333" fill="none"/><path d="M499.5 556.63v20M519.5 566.63h-20M1319.28 1158l-20-10 20-10M1319.28 1148h-20" stroke="#333" fill="#fff"/><path d="M499.5 956h-8c-6.63 0-12-5.37-12-12v-62c0-6.63 5.37-12 12-12H828c6.63 0 12-5.37 12-12V683.95c0-6.63 5.37-12 12-12h28.1" stroke="#333" fill="none"/><path d="M499.5 946v20M519.5 956h-20M899.28 681.95l-20-10 20-10M899.28 671.95h-20" stroke="#333" fill="#fff"/><path d="M900 945c0-2.76 2.24-5 5-5h270c2.76 0 5 2.24 5 5v150c0 2.76-2.24 5-5 5H905c-2.76 0-5-2.24-5-5z" fill="#fff"/><path d="M900 900h280v40H900z" fill="#ccc"/><path d="M900 905c0-2.76 2.24-5 5-5h270c2.76 0 5 2.24 5 5v190c0 2.76-2.24 5-5 5H905c-2.76 0-5-2.24-5-5zM900 940h280M1055.9 940v160" stroke="#333" fill="none"/><use xlink:href="#ac" transform="matrix(1,0,0,1,910,900) translate(0 23.6)"/><use xlink:href="#b" transform="matrix(1,0,0,1,905,942.5) translate(0 17.1)"/><use xlink:href="#i" transform="matrix(1,0,0,1,1060.8959074733098,942.5) translate(0 17.1)"/><use xlink:href="#ad" transform="matrix(1,0,0,1,905,974.5) translate(0 17.1)"/><use xlink:href="#E" transform="matrix(1,0,0,1,1060.8959074733098,974.5) translate(0 17.1)"/><use xlink:href="#J" transform="matrix(1,0,0,1,905,1006.5) translate(0 17.1)"/><use xlink:href="#E" transform="matrix(1,0,0,1,1060.8959074733098,1006.5) translate(0 17.1)"/><use xlink:href="#L" transform="matrix(1,0,0,1,905,1038.5) translate(0 17.1)"/><use xlink:href="#k" transform="matrix(1,0,0,1,1060.8959074733098,1038.5) translate(0 17.1)"/><use xlink:href="#l" transform="matrix(1,0,0,1,905,1070.5) translate(0 17.1)"/><use xlink:href="#k" transform="matrix(1,0,0,1,1060.8959074733098,1070.5) translate(0 17.1)"/><path d="M879.5 603.8c-5.25 0-9.5 4.24-9.5 9.5v397.52c0 5.58 4.52 10.1 10.1 10.1" stroke="#333" fill="none"/><path d="M879.5 593.8v20M899.5 603.8h-20M899.28 1030.9l-20-10 20-10M899.28 1020.9h-20" stroke="#333" fill="#fff"/><path d="M499.5 955.56H472c-6.63 0-12-5.38-12-12V902c0-6.63 5.37-12 12-12h375.5c6.63 0 12 5.37 12 12v73.96c0 6.62 5.37 12 12 12h8.6" stroke="#333" fill="none"/><path d="M499.5 945.56v20M519.5 955.56h-20M899.28 997.96l-20-10 20-10M899.28 987.96h-20" stroke="#333" fill="#fff"/><defs><path fill="#333" d="M125-24c46 0 70-25 89-51l25 16C214-24 183 4 123 4 8 4-5-146 60-208c32-50 158-61 191-5 5 7 9 14 11 22l-32 10c-9-28-33-43-69-43-74 0-108 51-108 125 0 46 24 75 72 75" id="ae"/><path fill="#333" d="M165-48c-4 18 1 34 23 27l-3 20c-29 8-62 0-52-35h-2C116-14 99 4 63 4 30 4 8-16 8-49c0-68 71-67 138-67 10-26 0-56-31-54-26 1-42 9-47 31l-32-5c8-67 160-71 144 15-5 28-9 54-15 81zM42-50c3 52 80 24 89-6 7-12 7-24 11-38-47 1-103-4-100 44" id="af"/><path fill="#333" d="M51-54c-9 22 5 41 31 30L79-1C43 14 10-4 19-52l22-115H19l5-23h22l19-43h21l-9 43h35l-4 23H73" id="ag"/><path fill="#333" d="M111-194c62-3 86 47 72 106H45c-7 38 6 69 45 68 27-1 43-14 53-32l24 11C152-15 129 4 87 4 38 3 12-23 12-71c0-70 32-119 99-123zm44 81c14-66-71-72-95-28-4 8-8 17-11 28h106" id="ah"/><path fill="#333" d="M103-194c29 0 47 14 56 36 2-11 5-23 8-32h30L160-5C157 61 82 97 21 62 9 55 4 45 1 30l28-7c7 42 83 31 92-3 4-16 9-38 13-55-13 20-29 36-62 36-40 0-60-25-60-64 0-71 23-131 91-131zm4 24c-53 0-58 54-61 104-2 27 10 44 36 44 49 0 65-50 67-102 1-29-15-46-42-46" id="ai"/><path fill="#333" d="M30-147c31-64 166-65 159 27C183-49 158 1 86 4 9 8 1-88 30-147zM88-20c53 0 68-48 68-100 0-31-11-51-44-50-52 1-68 46-68 97 0 32 13 53 44 53" id="aj"/><path fill="#333" d="M66-151c12-25 30-51 66-40l-6 26C45-176 58-65 38 0H6l36-190h30" id="ak"/><path fill="#333" d="M50-231l6-30h32l-6 30H50zM6 0l37-190h31L37 0H6" id="al"/><path fill="#333" d="M55-144c13 50 104 24 104 88C159 21 15 23 1-39l26-10c6 40 102 42 102-4-13-50-104-23-104-87 0-71 143-71 148-8l-29 4c-5-35-85-37-89 0" id="am"/><g id="a"><use transform="matrix(0.05,0,0,0.05,0,0)" xlink:href="#ae"/><use transform="matrix(0.05,0,0,0.05,12.950000000000001,0)" xlink:href="#af"/><use transform="matrix(0.05,0,0,0.05,22.950000000000003,0)" xlink:href="#ag"/><use transform="matrix(0.05,0,0,0.05,27.950000000000003,0)" xlink:href="#ah"/><use transform="matrix(0.05,0,0,0.05,37.95,0)" xlink:href="#ai"/><use transform="matrix(0.05,0,0,0.05,47.95,0)" xlink:href="#aj"/><use transform="matrix(0.05,0,0,0.05,57.95,0)" xlink:href="#ak"/><use transform="matrix(0.05,0,0,0.05,63.900000000000006,0)" xlink:href="#al"/><use transform="matrix(0.05,0,0,0.05,67.85000000000001,0)" xlink:href="#ah"/><use transform="matrix(0.05,0,0,0.05,77.85000000000001,0)" xlink:href="#am"/></g><path fill="#333" d="M133-28C103 26-5 8 13-77c13-62 24-115 90-117 29-1 46 15 56 35l19-102h32L160 0h-30zM45-64c-2 27 10 43 35 43 54-1 69-50 69-103 0-29-15-46-42-46-53-1-58 58-62 106" id="an"/><g id="b"><use transform="matrix(0.05,0,0,0.05,0,0)" xlink:href="#al"/><use transform="matrix(0.05,0,0,0.05,3.95,0)" xlink:href="#an"/></g><path fill="#333" d="M67-158c22-48 132-52 116 29L158 0h-32l25-140c3-38-53-32-70-12C52-117 51-52 38 0H6l36-190h30" id="ao"/><path fill="#333" d="M17-49c1-102 45-165 103-212h30C92-210 49-145 49-46 49 4 63 43 85 75H54C30 43 18 2 17-49" id="ap"/><path fill="#333" d="M9 0l6-27h63l36-188-63 39 6-31 66-41h29L110-27h60l-5 27H9" id="aq"/><path fill="#333" d="M98-137C97-35 54 29-4 75h-31C23 23 67-41 67-140c0-50-15-89-37-121h31c24 32 36 73 37 124" id="ar"/><g id="c"><use transform="matrix(0.05,0,0,0.05,0,0)" xlink:href="#al"/><use transform="matrix(0.05,0,0,0.05,3.95,0)" xlink:href="#ao"/><use transform="matrix(0.05,0,0,0.05,13.949999999999998,0)" xlink:href="#ag"/><use transform="matrix(0.05,0,0,0.05,18.95,0)" xlink:href="#ap"/><use transform="matrix(0.05,0,0,0.05,24.9,0)" xlink:href="#aq"/><use transform="matrix(0.05,0,0,0.05,33.55,0)" xlink:href="#aq"/><use transform="matrix(0.05,0,0,0.05,43.55,0)" xlink:href="#ar"/></g><path fill="#333" d="M248-111c6-24 9-61-24-58-72 9-57 108-77 169h-31l26-142c3-37-50-30-64-10C52-115 50-51 37 0H6l36-190h30c-1 10-6 24-4 32 13-43 101-52 105 5 13-22 29-41 61-41 90 0 28 129 23 194h-31" id="as"/><g id="d"><use transform="matrix(0.05,0,0,0.05,0,0)" xlink:href="#ao"/><use transform="matrix(0.05,0,0,0.05,10,0)" xlink:href="#af"/><use transform="matrix(0.05,0,0,0.05,20,0)" xlink:href="#as"/><use transform="matrix(0.05,0,0,0.05,34.95,0)" xlink:href="#ah"/></g><path fill="#333" d="M89 0H52L20-190h33L74-25l89-165h34" id="at"/><path fill="#333" d="M44-68c0 29 11 47 38 47 30 0 42-19 51-41l28 9C148-21 126 4 82 4 31 4 10-29 12-85c3-77 74-140 146-93 12 8 15 23 18 40l-31 5c-1-22-13-36-36-36-52 0-65 49-65 101" id="au"/><path fill="#333" d="M67-158c15-20 31-36 64-36 94 0 33 127 27 194h-32l25-140c3-38-53-32-70-12C52-117 51-51 37 0H6l51-261h31" id="av"/><path fill="#333" d="M123-251c66 0 92 69 53 113C138-94 73-75 39-27h128l-5 27H-2c17-92 123-93 159-163 14-28-1-64-36-62-29 2-46 17-54 41l-30-6c13-36 37-61 86-61" id="aw"/><path fill="#333" d="M151-85c6-55-69-56-94-29H26l34-134h141l-5 27H84l-20 79c41-34 127-11 121 53C199 13 30 38 8-54l29-8C52 0 159-13 151-85" id="ax"/><g id="e"><use transform="matrix(0.05,0,0,0.05,0,0)" xlink:href="#at"/><use transform="matrix(0.05,0,0,0.05,9,0)" xlink:href="#af"/><use transform="matrix(0.05,0,0,0.05,19,0)" xlink:href="#ak"/><use transform="matrix(0.05,0,0,0.05,24.95,0)" xlink:href="#au"/><use transform="matrix(0.05,0,0,0.05,33.95,0)" xlink:href="#av"/><use transform="matrix(0.05,0,0,0.05,43.95,0)" xlink:href="#af"/><use transform="matrix(0.05,0,0,0.05,53.95,0)" xlink:href="#ak"/><use transform="matrix(0.05,0,0,0.05,59.900000000000006,0)" xlink:href="#ap"/><use transform="matrix(0.05,0,0,0.05,65.85000000000001,0)" xlink:href="#aw"/><use transform="matrix(0.05,0,0,0.05,75.85000000000001,0)" xlink:href="#ax"/><use transform="matrix(0.05,0,0,0.05,85.85000000000001,0)" xlink:href="#ax"/><use transform="matrix(0.05,0,0,0.05,95.85000000000001,0)" xlink:href="#ar"/></g><path fill="#333" d="M-28 44V31h207v13H-28" id="ay"/><g id="f"><use transform="matrix(0.05,0,0,0.05,0,0)" xlink:href="#am"/><use transform="matrix(0.05,0,0,0.05,9,0)" xlink:href="#aj"/><use transform="matrix(0.05,0,0,0.05,19,0)" xlink:href="#ak"/><use transform="matrix(0.05,0,0,0.05,24.95,0)" xlink:href="#ag"/><use transform="matrix(0.05,0,0,0.05,29.950000000000003,0)" xlink:href="#ay"/><use transform="matrix(0.05,0,0,0.05,39.95,0)" xlink:href="#aj"/><use transform="matrix(0.05,0,0,0.05,49.95,0)" xlink:href="#ak"/><use transform="matrix(0.05,0,0,0.05,55.900000000000006,0)" xlink:href="#an"/><use transform="matrix(0.05,0,0,0.05,65.9,0)" xlink:href="#ah"/><use transform="matrix(0.05,0,0,0.05,75.9,0)" xlink:href="#ak"/></g><path fill="#333" d="M67-162c32-53 139-36 121 50C175-51 163 2 97 4 68 4 52-11 42-31 38 6 28 39 22 75H-9l50-265h29c-1 10 0 20-3 28zm89 36c0-26-10-43-35-43-54 0-67 50-69 103-1 29 14 45 42 46 53 0 62-58 62-106" id="az"/><g id="g"><use transform="matrix(0.05,0,0,0.05,0,0)" xlink:href="#az"/><use transform="matrix(0.05,0,0,0.05,10,0)" xlink:href="#af"/><use transform="matrix(0.05,0,0,0.05,20,0)" xlink:href="#ak"/><use transform="matrix(0.05,0,0,0.05,25.950000000000003,0)" xlink:href="#ah"/><use transform="matrix(0.05,0,0,0.05,35.95,0)" xlink:href="#ao"/><use transform="matrix(0.05,0,0,0.05,45.95,0)" xlink:href="#ag"/><use transform="matrix(0.05,0,0,0.05,50.95,0)" xlink:href="#ay"/><use transform="matrix(0.05,0,0,0.05,60.95,0)" xlink:href="#al"/><use transform="matrix(0.05,0,0,0.05,64.9,0)" xlink:href="#an"/></g><g id="h"><use transform="matrix(0.05,0,0,0.05,0,0)" xlink:href="#al"/><use transform="matrix(0.05,0,0,0.05,3.95,0)" xlink:href="#am"/><use transform="matrix(0.05,0,0,0.05,12.949999999999998,0)" xlink:href="#ay"/><use transform="matrix(0.05,0,0,0.05,22.95,0)" xlink:href="#af"/><use transform="matrix(0.05,0,0,0.05,32.95,0)" xlink:href="#au"/><use transform="matrix(0.05,0,0,0.05,41.95,0)" xlink:href="#ag"/><use transform="matrix(0.05,0,0,0.05,46.95,0)" xlink:href="#al"/><use transform="matrix(0.05,0,0,0.05,50.900000000000006,0)" xlink:href="#at"/><use transform="matrix(0.05,0,0,0.05,59.900000000000006,0)" xlink:href="#ah"/></g><g id="i"><use transform="matrix(0.05,0,0,0.05,0,0)" xlink:href="#al"/><use transform="matrix(0.05,0,0,0.05,3.95,0)" xlink:href="#ao"/><use transform="matrix(0.05,0,0,0.05,13.949999999999998,0)" xlink:href="#ag"/></g><path d="M96-169c-40 0-48 33-48 73s9 75 48 75c24 0 41-14 43-38l32 2c-6 37-31 61-74 61-59 0-76-41-82-99-10-93 101-131 147-64 4 7 5 14 7 22l-32 3c-4-21-16-35-41-35" id="aA"/><path d="M114-163C36-179 61-72 57 0H25l-1-190h30c1 12-1 29 2 39 6-27 23-49 58-41v29" id="aB"/><path d="M100-194c63 0 86 42 84 106H49c0 40 14 67 53 68 26 1 43-12 49-29l28 8c-11 28-37 45-77 45C44 4 14-33 15-96c1-61 26-98 85-98zm52 81c6-60-76-77-97-28-3 7-6 17-6 28h103" id="aC"/><path d="M141-36C126-15 110 5 73 4 37 3 15-17 15-53c-1-64 63-63 125-63 3-35-9-54-41-54-24 1-41 7-42 31l-33-3c5-37 33-52 76-52 45 0 72 20 72 64v82c-1 20 7 32 28 27v20c-31 9-61-2-59-35zM48-53c0 20 12 33 32 33 41-3 63-29 60-74-43 2-92-5-92 41" id="aD"/><path d="M59-47c-2 24 18 29 38 22v24C64 9 27 4 27-40v-127H5v-23h24l9-43h21v43h35v23H59v120" id="aE"/><path d="M85-194c31 0 48 13 60 33l-1-100h32l1 261h-30c-2-10 0-23-3-31C134-8 116 4 85 4 32 4 16-35 15-94c0-66 23-100 70-100zm9 24c-40 0-46 34-46 75 0 40 6 74 45 74 42 0 51-32 51-76 0-42-9-74-50-73" id="aF"/><path d="M-5 72V49h209v23H-5" id="aG"/><g id="j"><use transform="matrix(0.05,0,0,0.05,0,0)" xlink:href="#aA"/><use transform="matrix(0.05,0,0,0.05,9,0)" xlink:href="#aB"/><use transform="matrix(0.05,0,0,0.05,14.949999999999998,0)" xlink:href="#aC"/><use transform="matrix(0.05,0,0,0.05,24.95,0)" xlink:href="#aD"/><use transform="matrix(0.05,0,0,0.05,34.95,0)" xlink:href="#aE"/><use transform="matrix(0.05,0,0,0.05,39.95,0)" xlink:href="#aC"/><use transform="matrix(0.05,0,0,0.05,49.95,0)" xlink:href="#aF"/><use transform="matrix(0.05,0,0,0.05,59.95,0)" xlink:href="#aG"/><use transform="matrix(0.05,0,0,0.05,69.95,0)" xlink:href="#aD"/><use transform="matrix(0.05,0,0,0.05,79.95,0)" xlink:href="#aE"/></g><path d="M24-231v-30h32v30H24zM24 0v-190h32V0H24" id="aH"/><path d="M210-169c-67 3-38 105-44 169h-31v-121c0-29-5-50-35-48C34-165 62-65 56 0H25l-1-190h30c1 10-1 24 2 32 10-44 99-50 107 0 11-21 27-35 58-36 85-2 47 119 55 194h-31v-121c0-29-5-49-35-48" id="aI"/><g id="k"><use transform="matrix(0.05,0,0,0.05,0,0)" xlink:href="#aF"/><use transform="matrix(0.05,0,0,0.05,10,0)" xlink:href="#aD"/><use transform="matrix(0.05,0,0,0.05,20,0)" xlink:href="#aE"/><use transform="matrix(0.05,0,0,0.05,25,0)" xlink:href="#aC"/><use transform="matrix(0.05,0,0,0.05,35,0)" xlink:href="#aE"/><use transform="matrix(0.05,0,0,0.05,40,0)" xlink:href="#aH"/><use transform="matrix(0.05,0,0,0.05,43.95,0)" xlink:href="#aI"/><use transform="matrix(0.05,0,0,0.05,58.900000000000006,0)" xlink:href="#aC"/></g><path d="M84 4C-5 8 30-112 23-190h32v120c0 31 7 50 39 49 72-2 45-101 50-169h31l1 190h-30c-1-10 1-25-2-33-11 22-28 36-60 37" id="aJ"/><path d="M115-194c55 1 70 41 70 98S169 2 115 4C84 4 66-9 55-30l1 105H24l-1-265h31l2 30c10-21 28-34 59-34zm-8 174c40 0 45-34 45-75s-6-73-45-74c-42 0-51 32-51 76 0 43 10 73 51 73" id="aK"/><g id="l"><use transform="matrix(0.05,0,0,0.05,0,0)" xlink:href="#aJ"/><use transform="matrix(0.05,0,0,0.05,10,0)" xlink:href="#aK"/><use transform="matrix(0.05,0,0,0.05,20,0)" xlink:href="#aF"/><use transform="matrix(0.05,0,0,0.05,30,0)" xlink:href="#aD"/><use transform="matrix(0.05,0,0,0.05,40,0)" xlink:href="#aE"/><use transform="matrix(0.05,0,0,0.05,45,0)" xlink:href="#aC"/><use transform="matrix(0.05,0,0,0.05,55,0)" xlink:href="#aF"/><use transform="matrix(0.05,0,0,0.05,65,0)" xlink:href="#aG"/><use transform="matrix(0.05,0,0,0.05,75,0)" xlink:href="#aD"/><use transform="matrix(0.05,0,0,0.05,85,0)" xlink:href="#aE"/></g><path fill="#333" d="M198-190L69 30C53 58 25 83-20 72c4-11-1-27 19-22 33-1 43-29 59-52L20-190h32L79-34l84-156h35" id="aL"/><path fill="#333" d="M238-179c0 84-86 86-175 82L45 0H11l48-248c82 0 179-12 179 69zm-34 1c0-53-64-42-116-43l-19 98c63 0 135 9 135-55" id="aM"/><path fill="#333" d="M67 3c-93-2-31-127-26-193h32L48-50c-3 39 53 32 70 12 30-34 30-101 43-152h32L157 0h-30c1-10 6-24 4-33-14 20-29 37-64 36" id="aN"/><g id="m"><use transform="matrix(0.05,0,0,0.05,0,0)" xlink:href="#ae"/><use transform="matrix(0.05,0,0,0.05,12.950000000000001,0)" xlink:href="#af"/><use transform="matrix(0.05,0,0,0.05,22.950000000000003,0)" xlink:href="#ag"/><use transform="matrix(0.05,0,0,0.05,27.950000000000003,0)" xlink:href="#ah"/><use transform="matrix(0.05,0,0,0.05,37.95,0)" xlink:href="#ai"/><use transform="matrix(0.05,0,0,0.05,47.95,0)" xlink:href="#aj"/><use transform="matrix(0.05,0,0,0.05,57.95,0)" xlink:href="#ak"/><use transform="matrix(0.05,0,0,0.05,63.900000000000006,0)" xlink:href="#aL"/><use transform="matrix(0.05,0,0,0.05,72.9,0)" xlink:href="#aM"/><use transform="matrix(0.05,0,0,0.05,84.9,0)" xlink:href="#ak"/><use transform="matrix(0.05,0,0,0.05,90.85000000000001,0)" xlink:href="#aj"/><use transform="matrix(0.05,0,0,0.05,100.85000000000001,0)" xlink:href="#an"/><use transform="matrix(0.05,0,0,0.05,110.85000000000001,0)" xlink:href="#aN"/><use transform="matrix(0.05,0,0,0.05,120.85000000000001,0)" xlink:href="#au"/><use transform="matrix(0.05,0,0,0.05,129.85000000000002,0)" xlink:href="#ag"/><use transform="matrix(0.05,0,0,0.05,134.85000000000002,0)" xlink:href="#am"/></g><g id="n"><use transform="matrix(0.05,0,0,0.05,0,0)" xlink:href="#au"/><use transform="matrix(0.05,0,0,0.05,9,0)" xlink:href="#af"/><use transform="matrix(0.05,0,0,0.05,19,0)" xlink:href="#ag"/><use transform="matrix(0.05,0,0,0.05,24,0)" xlink:href="#ah"/><use transform="matrix(0.05,0,0,0.05,34,0)" xlink:href="#ai"/><use transform="matrix(0.05,0,0,0.05,44,0)" xlink:href="#aj"/><use transform="matrix(0.05,0,0,0.05,54,0)" xlink:href="#ak"/><use transform="matrix(0.05,0,0,0.05,59.95,0)" xlink:href="#aL"/><use transform="matrix(0.05,0,0,0.05,68.95,0)" xlink:href="#ay"/><use transform="matrix(0.05,0,0,0.05,78.95,0)" xlink:href="#al"/><use transform="matrix(0.05,0,0,0.05,82.9,0)" xlink:href="#an"/></g><g id="o"><use transform="matrix(0.05,0,0,0.05,0,0)" xlink:href="#az"/><use transform="matrix(0.05,0,0,0.05,10,0)" xlink:href="#ak"/><use transform="matrix(0.05,0,0,0.05,15.949999999999998,0)" xlink:href="#aj"/><use transform="matrix(0.05,0,0,0.05,25.950000000000003,0)" xlink:href="#an"/><use transform="matrix(0.05,0,0,0.05,35.95,0)" xlink:href="#aN"/><use transform="matrix(0.05,0,0,0.05,45.95,0)" xlink:href="#au"/><use transform="matrix(0.05,0,0,0.05,54.95,0)" xlink:href="#ag"/><use transform="matrix(0.05,0,0,0.05,59.95,0)" xlink:href="#ay"/><use transform="matrix(0.05,0,0,0.05,69.95,0)" xlink:href="#al"/><use transform="matrix(0.05,0,0,0.05,73.9,0)" xlink:href="#an"/></g><g id="p"><use transform="matrix(0.05,0,0,0.05,0,0)" xlink:href="#au"/><use transform="matrix(0.05,0,0,0.05,9,0)" xlink:href="#ak"/><use transform="matrix(0.05,0,0,0.05,14.949999999999998,0)" xlink:href="#ah"/><use transform="matrix(0.05,0,0,0.05,24.95,0)" xlink:href="#af"/><use transform="matrix(0.05,0,0,0.05,34.95,0)" xlink:href="#ag"/><use transform="matrix(0.05,0,0,0.05,39.95,0)" xlink:href="#ah"/><use transform="matrix(0.05,0,0,0.05,49.95,0)" xlink:href="#an"/><use transform="matrix(0.05,0,0,0.05,59.95,0)" xlink:href="#ay"/><use transform="matrix(0.05,0,0,0.05,69.95,0)" xlink:href="#af"/><use transform="matrix(0.05,0,0,0.05,79.95,0)" xlink:href="#ag"/></g><g id="q"><use transform="matrix(0.05,0,0,0.05,0,0)" xlink:href="#an"/><use transform="matrix(0.05,0,0,0.05,10,0)" xlink:href="#af"/><use transform="matrix(0.05,0,0,0.05,20,0)" xlink:href="#ag"/><use transform="matrix(0.05,0,0,0.05,25,0)" xlink:href="#ah"/><use transform="matrix(0.05,0,0,0.05,35,0)" xlink:href="#ag"/><use transform="matrix(0.05,0,0,0.05,40,0)" xlink:href="#al"/><use transform="matrix(0.05,0,0,0.05,43.95,0)" xlink:href="#as"/><use transform="matrix(0.05,0,0,0.05,58.900000000000006,0)" xlink:href="#ah"/></g><path fill="#a9afb8" d="M24 0v-248h195v40H76v63h132v40H76v65h150V0H24" id="aO"/><path fill="#a9afb8" d="M190-63c-7 42-38 67-86 67-59 0-84-38-90-98-12-110 154-137 174-36l-49 2c-2-19-15-32-35-32-30 0-35 28-38 64-6 74 65 87 74 30" id="aP"/><path fill="#a9afb8" d="M110-194c64 0 96 36 96 99 0 64-35 99-97 99-61 0-95-36-95-99 0-62 34-99 96-99zm-1 164c35 0 45-28 45-65 0-40-10-65-43-65-34 0-45 26-45 65 0 36 10 65 43 65" id="aQ"/><path fill="#a9afb8" d="M220-157c-53 9-28 100-34 157h-49v-107c1-27-5-49-29-50C55-147 81-57 75 0H25l-1-190h47c2 12-1 28 3 38 10-53 101-56 108 0 13-22 24-43 59-42 82 1 51 116 57 194h-49v-107c-1-25-5-48-29-50" id="aR"/><path fill="#a9afb8" d="M185-48c-13 30-37 53-82 52C43 2 14-33 14-96s30-98 90-98c62 0 83 45 84 108H66c0 31 8 55 39 56 18 0 30-7 34-22zm-45-69c5-46-57-63-70-21-2 6-4 13-4 21h74" id="aS"/><path fill="#a9afb8" d="M135-150c-39-12-60 13-60 57V0H25l-1-190h47c2 13-1 29 3 40 6-28 27-53 61-41v41" id="aT"/><path fill="#a9afb8" d="M14-72v-43h91v43H14" id="aU"/><path fill="#a9afb8" d="M240-174c0 40-23 61-54 70L253 0h-59l-57-94H76V0H24v-248c93 4 217-23 216 74zM76-134c48-2 112 12 112-38 0-48-66-32-112-35v73" id="aV"/><path fill="#a9afb8" d="M24-248c120-7 223 5 221 122C244-46 201 0 124 0H24v-248zM76-40c74 7 117-18 117-86 0-67-45-88-117-82v168" id="aW"/><path fill="#a9afb8" d="M121-226c-27-7-43 5-38 36h38v33H83V0H34v-157H6v-33h28c-9-59 32-81 87-68v32" id="aX"/><path fill="#a9afb8" d="M210 0H11v-37l134-170H24v-41h178v36L68-41h142V0" id="aY"/><path fill="#a9afb8" d="M133-34C117-15 103 5 69 4 32 3 11-16 11-54c-1-60 55-63 116-61 1-26-3-47-28-47-18 1-26 9-28 27l-52-2c7-38 36-58 82-57s74 22 75 68l1 82c-1 14 12 18 25 15v27c-30 8-71 5-69-32zm-48 3c29 0 43-24 42-57-32 0-66-3-65 30 0 17 8 27 23 27" id="aZ"/><path fill="#a9afb8" d="M135-194c87-1 58 113 63 194h-50c-7-57 23-157-34-157-59 0-34 97-39 157H25l-1-190h47c2 12-1 28 3 38 12-26 28-41 61-42" id="ba"/><path fill="#a9afb8" d="M199 0l-22-63H83L61 0H9l90-248h61L250 0h-51zm-33-102l-36-108c-10 38-24 72-36 108h72" id="bb"/><path fill="#a9afb8" d="M137-138c1-29-70-34-71-4 15 46 118 7 119 86 1 83-164 76-172 9l43-7c4 19 20 25 44 25 33 8 57-30 24-41C81-84 22-81 20-136c-2-80 154-74 161-7" id="bc"/><path fill="#a9afb8" d="M115-3C79 11 28 4 28-45v-112H4v-33h27l15-45h31v45h36v33H77v99c-1 23 16 31 38 25v30" id="bd"/><g id="r"><use transform="matrix(0.0728395061728395,0,0,0.0728395061728395,0,0)" xlink:href="#aO"/><use transform="matrix(0.0728395061728395,0,0,0.0728395061728395,17.48148148148148,0)" xlink:href="#aP"/><use transform="matrix(0.0728395061728395,0,0,0.0728395061728395,32.04938271604938,0)" xlink:href="#aQ"/><use transform="matrix(0.0728395061728395,0,0,0.0728395061728395,48.00123456790123,0)" xlink:href="#aR"/><use transform="matrix(0.0728395061728395,0,0,0.0728395061728395,71.30987654320987,0)" xlink:href="#aR"/><use transform="matrix(0.0728395061728395,0,0,0.0728395061728395,94.61851851851851,0)" xlink:href="#aS"/><use transform="matrix(0.0728395061728395,0,0,0.0728395061728395,109.18641975308641,0)" xlink:href="#aT"/><use transform="matrix(0.0728395061728395,0,0,0.0728395061728395,119.38395061728394,0)" xlink:href="#aP"/><use transform="matrix(0.0728395061728395,0,0,0.0728395061728395,133.95185185185184,0)" xlink:href="#aS"/><use transform="matrix(0.0728395061728395,0,0,0.0728395061728395,148.51975308641974,0)" xlink:href="#aU"/><use transform="matrix(0.0728395061728395,0,0,0.0728395061728395,157.1876543209876,0)" xlink:href="#aO"/><use transform="matrix(0.0728395061728395,0,0,0.0728395061728395,174.6691358024691,0)" xlink:href="#aV"/><use transform="matrix(0.0728395061728395,0,0,0.0728395061728395,193.53456790123454,0)" xlink:href="#aW"/><use transform="matrix(0.0728395061728395,0,0,0.0728395061728395,212.39999999999998,0)" xlink:href="#aU"/><use transform="matrix(0.0728395061728395,0,0,0.0728395061728395,221.06790123456787,0)" xlink:href="#aX"/><use transform="matrix(0.0728395061728395,0,0,0.0728395061728395,229.73580246913576,0)" xlink:href="#aQ"/><use transform="matrix(0.0728395061728395,0,0,0.0728395061728395,245.6876543209876,0)" xlink:href="#aT"/><use transform="matrix(0.0728395061728395,0,0,0.0728395061728395,255.88518518518512,0)" xlink:href="#aU"/><use transform="matrix(0.0728395061728395,0,0,0.0728395061728395,264.553086419753,0)" xlink:href="#aY"/><use transform="matrix(0.0728395061728395,0,0,0.0728395061728395,280.5049382716049,0)" xlink:href="#aZ"/><use transform="matrix(0.0728395061728395,0,0,0.0728395061728395,295.0728395061728,0)" xlink:href="#aR"/><use transform="matrix(0.0728395061728395,0,0,0.0728395061728395,318.3814814814815,0)" xlink:href="#aR"/><use transform="matrix(0.0728395061728395,0,0,0.0728395061728395,341.6901234567901,0)" xlink:href="#aS"/><use transform="matrix(0.0728395061728395,0,0,0.0728395061728395,356.258024691358,0)" xlink:href="#ba"/><use transform="matrix(0.0728395061728395,0,0,0.0728395061728395,372.2098765432099,0)" xlink:href="#aU"/><use transform="matrix(0.0728395061728395,0,0,0.0728395061728395,380.8777777777778,0)" xlink:href="#bb"/><use transform="matrix(0.0728395061728395,0,0,0.0728395061728395,399.7432098765432,0)" xlink:href="#bc"/><use transform="matrix(0.0728395061728395,0,0,0.0728395061728395,414.31111111111113,0)" xlink:href="#bc"/><use transform="matrix(0.0728395061728395,0,0,0.0728395061728395,428.87901234567903,0)" xlink:href="#aS"/><use transform="matrix(0.0728395061728395,0,0,0.0728395061728395,443.4469135802469,0)" xlink:href="#bc"/><use transform="matrix(0.0728395061728395,0,0,0.0728395061728395,458.0148148148148,0)" xlink:href="#bc"/><use transform="matrix(0.0728395061728395,0,0,0.0728395061728395,472.5827160493827,0)" xlink:href="#aR"/><use transform="matrix(0.0728395061728395,0,0,0.0728395061728395,495.89135802469144,0)" xlink:href="#aS"/><use transform="matrix(0.0728395061728395,0,0,0.0728395061728395,510.45925925925934,0)" xlink:href="#ba"/><use transform="matrix(0.0728395061728395,0,0,0.0728395061728395,526.4111111111112,0)" xlink:href="#bd"/></g><path fill="#a9afb8" d="M209 0H11v-25l151-195H24v-28h176v25L50-27h159V0" id="be"/><path fill="#a9afb8" d="M100-194c62-1 85 37 85 99 1 63-27 99-86 99S16-35 15-95c0-66 28-99 85-99zM99-20c44 1 53-31 53-75 0-43-8-75-51-75s-53 32-53 75 10 74 51 75" id="bf"/><path fill="#a9afb8" d="M106-169C34-169 62-67 57 0H25v-261h32l-1 103c12-21 28-36 61-36 89 0 53 116 60 194h-32v-121c2-32-8-49-39-48" id="bg"/><path fill="#a9afb8" d="M141-36C126-15 110 5 73 4 37 3 15-17 15-53c-1-64 63-63 125-63 3-35-9-54-41-54-24 1-41 7-42 31l-33-3c5-37 33-52 76-52 45 0 72 20 72 64v82c-1 20 7 32 28 27v20c-31 9-61-2-59-35zM48-53c0 20 12 33 32 33 41-3 63-29 60-74-43 2-92-5-92 41" id="bh"/><path fill="#a9afb8" d="M24-231v-30h32v30H24zM24 0v-190h32V0H24" id="bi"/><path fill="#a9afb8" d="M115-194c53 0 69 39 70 98 0 66-23 100-70 100C84 3 66-7 56-30L54 0H23l1-261h32v101c10-23 28-34 59-34zm-8 174c40 0 45-34 45-75 0-40-5-75-45-74-42 0-51 32-51 76 0 43 10 73 51 73" id="bj"/><g id="s"><use transform="matrix(0.04248971193415638,0,0,0.04248971193415638,0,0)" xlink:href="#be"/><use transform="matrix(0.04248971193415638,0,0,0.04248971193415638,9.305246913580246,0)" xlink:href="#bf"/><use transform="matrix(0.04248971193415638,0,0,0.04248971193415638,17.80318930041152,0)" xlink:href="#bg"/><use transform="matrix(0.04248971193415638,0,0,0.04248971193415638,26.301131687242794,0)" xlink:href="#bh"/><use transform="matrix(0.04248971193415638,0,0,0.04248971193415638,34.79907407407407,0)" xlink:href="#bi"/><use transform="matrix(0.04248971193415638,0,0,0.04248971193415638,38.15576131687242,0)" xlink:href="#bj"/></g><path fill="#a9afb8" d="M185-189c-5-48-123-54-124 2 14 75 158 14 163 119 3 78-121 87-175 55-17-10-28-26-33-46l33-7c5 56 141 63 141-1 0-78-155-14-162-118-5-82 145-84 179-34 5 7 8 16 11 25" id="bk"/><g id="t"><use transform="matrix(0.04248971193415638,0,0,0.04248971193415638,0,0)" xlink:href="#bk"/><use transform="matrix(0.04248971193415638,0,0,0.04248971193415638,10.19753086419753,0)" xlink:href="#bg"/><use transform="matrix(0.04248971193415638,0,0,0.04248971193415638,18.695473251028805,0)" xlink:href="#bh"/><use transform="matrix(0.04248971193415638,0,0,0.04248971193415638,27.193415637860078,0)" xlink:href="#bg"/></g><path fill="#a9afb8" d="M32 76v-337h29V76H32" id="bl"/><use transform="matrix(0.04248971193415638,0,0,0.04248971193415638,0,0)" xlink:href="#bl" id="u"/><path fill="#a9afb8" d="M205 0l-28-72H64L36 0H1l101-248h38L239 0h-34zm-38-99l-47-123c-12 45-31 82-46 123h93" id="bm"/><path fill="#a9afb8" d="M84 4C-5 8 30-112 23-190h32v120c0 31 7 50 39 49 72-2 45-101 50-169h31l1 190h-30c-1-10 1-25-2-33-11 22-28 36-60 37" id="bn"/><path fill="#a9afb8" d="M177-190C167-65 218 103 67 71c-23-6-38-20-44-43l32-5c15 47 100 32 89-28v-30C133-14 115 1 83 1 29 1 15-40 15-95c0-56 16-97 71-98 29-1 48 16 59 35 1-10 0-23 2-32h30zM94-22c36 0 50-32 50-73 0-42-14-75-50-75-39 0-46 34-46 75s6 73 46 73" id="bo"/><path fill="#a9afb8" d="M135-143c-3-34-86-38-87 0 15 53 115 12 119 90S17 21 10-45l28-5c4 36 97 45 98 0-10-56-113-15-118-90-4-57 82-63 122-42 12 7 21 19 24 35" id="bp"/><path fill="#a9afb8" d="M59-47c-2 24 18 29 38 22v24C64 9 27 4 27-40v-127H5v-23h24l9-43h21v43h35v23H59v120" id="bq"/><g id="v"><use transform="matrix(0.04248971193415638,0,0,0.04248971193415638,0,0)" xlink:href="#bm"/><use transform="matrix(0.04248971193415638,0,0,0.04248971193415638,10.19753086419753,0)" xlink:href="#bn"/><use transform="matrix(0.04248971193415638,0,0,0.04248971193415638,18.695473251028805,0)" xlink:href="#bo"/><use transform="matrix(0.04248971193415638,0,0,0.04248971193415638,27.193415637860078,0)" xlink:href="#bn"/><use transform="matrix(0.04248971193415638,0,0,0.04248971193415638,35.691358024691354,0)" xlink:href="#bp"/><use transform="matrix(0.04248971193415638,0,0,0.04248971193415638,43.3395061728395,0)" xlink:href="#bq"/></g><path fill="#a9afb8" d="M101-251c82-7 93 87 43 132L82-64C71-53 59-42 53-27h129V0H18c2-99 128-94 128-182 0-28-16-43-45-43s-46 15-49 41l-32-3c6-41 34-60 81-64" id="br"/><path fill="#a9afb8" d="M68-38c1 34 0 65-14 84H32c9-13 17-26 17-46H33v-38h35" id="bs"/><g id="w"><use transform="matrix(0.04248971193415638,0,0,0.04248971193415638,0,0)" xlink:href="#br"/><use transform="matrix(0.04248971193415638,0,0,0.04248971193415638,8.497942386831275,0)" xlink:href="#br"/><use transform="matrix(0.04248971193415638,0,0,0.04248971193415638,16.99588477366255,0)" xlink:href="#bs"/></g><path fill="#a9afb8" d="M101-251c68 0 85 55 85 127S166 4 100 4C33 4 14-52 14-124c0-73 17-127 87-127zm-1 229c47 0 54-49 54-102s-4-102-53-102c-51 0-55 48-55 102 0 53 5 102 54 102" id="bt"/><path fill="#a9afb8" d="M27 0v-27h64v-190l-56 39v-29l58-41h29v221h61V0H27" id="bu"/><g id="x"><use transform="matrix(0.04248971193415638,0,0,0.04248971193415638,0,0)" xlink:href="#br"/><use transform="matrix(0.04248971193415638,0,0,0.04248971193415638,8.497942386831275,0)" xlink:href="#bt"/><use transform="matrix(0.04248971193415638,0,0,0.04248971193415638,16.99588477366255,0)" xlink:href="#br"/><use transform="matrix(0.04248971193415638,0,0,0.04248971193415638,25.493827160493822,0)" xlink:href="#bu"/></g><g id="y"><use transform="matrix(0.05,0,0,0.05,0,0)" xlink:href="#aM"/><use transform="matrix(0.05,0,0,0.05,12,0)" xlink:href="#ak"/><use transform="matrix(0.05,0,0,0.05,17.95,0)" xlink:href="#aj"/><use transform="matrix(0.05,0,0,0.05,27.950000000000003,0)" xlink:href="#an"/><use transform="matrix(0.05,0,0,0.05,37.95,0)" xlink:href="#aN"/><use transform="matrix(0.05,0,0,0.05,47.95,0)" xlink:href="#au"/><use transform="matrix(0.05,0,0,0.05,56.95,0)" xlink:href="#ag"/><use transform="matrix(0.05,0,0,0.05,61.95,0)" xlink:href="#am"/></g><path fill="#333" d="M127 0L80-88 50-66 37 0H6l51-261h31L57-100l99-90h39l-93 82L161 0h-34" id="bv"/><g id="z"><use transform="matrix(0.05,0,0,0.05,0,0)" xlink:href="#am"/><use transform="matrix(0.05,0,0,0.05,9,0)" xlink:href="#bv"/><use transform="matrix(0.05,0,0,0.05,18,0)" xlink:href="#aN"/></g><path fill="#333" d="M187 0l-14-72H61L19 0h-37l149-248h38L221 0h-34zm-19-99l-22-123L76-99h92" id="bw"/><path fill="#333" d="M68-162c25-46 127-43 121 31C183-60 169 1 98 4 69 5 53-11 43-31L36 0H5l52-261h31zm88 36c2-27-9-43-34-43-55 0-70 51-70 103 0 29 15 45 43 46 52 0 58-58 61-106" id="bx"/><g id="A"><use transform="matrix(0.05,0,0,0.05,0,0)" xlink:href="#aM"/><use transform="matrix(0.05,0,0,0.05,12,0)" xlink:href="#ak"/><use transform="matrix(0.05,0,0,0.05,17.95,0)" xlink:href="#aj"/><use transform="matrix(0.05,0,0,0.05,27.950000000000003,0)" xlink:href="#an"/><use transform="matrix(0.05,0,0,0.05,37.95,0)" xlink:href="#aN"/><use transform="matrix(0.05,0,0,0.05,47.95,0)" xlink:href="#au"/><use transform="matrix(0.05,0,0,0.05,56.95,0)" xlink:href="#ag"/><use transform="matrix(0.05,0,0,0.05,61.95,0)" xlink:href="#bw"/><use transform="matrix(0.05,0,0,0.05,73.95,0)" xlink:href="#ag"/><use transform="matrix(0.05,0,0,0.05,78.95,0)" xlink:href="#ag"/><use transform="matrix(0.05,0,0,0.05,83.95,0)" xlink:href="#ak"/><use transform="matrix(0.05,0,0,0.05,89.9,0)" xlink:href="#al"/><use transform="matrix(0.05,0,0,0.05,93.85000000000001,0)" xlink:href="#bx"/><use transform="matrix(0.05,0,0,0.05,103.85000000000001,0)" xlink:href="#aN"/><use transform="matrix(0.05,0,0,0.05,113.85000000000001,0)" xlink:href="#ag"/><use transform="matrix(0.05,0,0,0.05,118.85000000000001,0)" xlink:href="#ah"/><use transform="matrix(0.05,0,0,0.05,128.85000000000002,0)" xlink:href="#am"/></g><path fill="#333" d="M6 0l50-261h32L37 0H6" id="by"/><g id="B"><use transform="matrix(0.05,0,0,0.05,0,0)" xlink:href="#at"/><use transform="matrix(0.05,0,0,0.05,9,0)" xlink:href="#af"/><use transform="matrix(0.05,0,0,0.05,19,0)" xlink:href="#by"/><use transform="matrix(0.05,0,0,0.05,22.95,0)" xlink:href="#aN"/><use transform="matrix(0.05,0,0,0.05,32.95,0)" xlink:href="#ah"/></g><path fill="#333" d="M76-167L44 0H12l33-167H18l4-23h27c3-47 25-81 82-69l-4 24c-35-8-44 15-46 45h37l-5 23H76" id="bz"/><g id="C"><use transform="matrix(0.05,0,0,0.05,0,0)" xlink:href="#au"/><use transform="matrix(0.05,0,0,0.05,9,0)" xlink:href="#af"/><use transform="matrix(0.05,0,0,0.05,19,0)" xlink:href="#ag"/><use transform="matrix(0.05,0,0,0.05,24,0)" xlink:href="#ah"/><use transform="matrix(0.05,0,0,0.05,34,0)" xlink:href="#ai"/><use transform="matrix(0.05,0,0,0.05,44,0)" xlink:href="#aj"/><use transform="matrix(0.05,0,0,0.05,54,0)" xlink:href="#ak"/><use transform="matrix(0.05,0,0,0.05,59.95,0)" xlink:href="#aL"/><use transform="matrix(0.05,0,0,0.05,68.95,0)" xlink:href="#ay"/><use transform="matrix(0.05,0,0,0.05,78.95,0)" xlink:href="#bz"/><use transform="matrix(0.05,0,0,0.05,83.95,0)" xlink:href="#al"/><use transform="matrix(0.05,0,0,0.05,87.9,0)" xlink:href="#ah"/><use transform="matrix(0.05,0,0,0.05,97.9,0)" xlink:href="#by"/><use transform="matrix(0.05,0,0,0.05,101.85000000000001,0)" xlink:href="#an"/><use transform="matrix(0.05,0,0,0.05,111.85000000000001,0)" xlink:href="#ay"/><use transform="matrix(0.05,0,0,0.05,121.85000000000001,0)" xlink:href="#al"/><use transform="matrix(0.05,0,0,0.05,125.80000000000001,0)" xlink:href="#an"/></g><path d="M100-194c62-1 85 37 85 99 1 63-27 99-86 99S16-35 15-95c0-66 28-99 85-99zM99-20c44 1 53-31 53-75 0-43-8-75-51-75s-53 32-53 75 10 74 51 75" id="bA"/><g id="D"><use transform="matrix(0.05,0,0,0.05,0,0)" xlink:href="#aK"/><use transform="matrix(0.05,0,0,0.05,10,0)" xlink:href="#aB"/><use transform="matrix(0.05,0,0,0.05,15.949999999999998,0)" xlink:href="#bA"/><use transform="matrix(0.05,0,0,0.05,25.950000000000003,0)" xlink:href="#aF"/><use transform="matrix(0.05,0,0,0.05,35.95,0)" xlink:href="#aJ"/><use transform="matrix(0.05,0,0,0.05,45.95,0)" xlink:href="#aA"/><use transform="matrix(0.05,0,0,0.05,54.95,0)" xlink:href="#aE"/><use transform="matrix(0.05,0,0,0.05,59.95,0)" xlink:href="#aG"/><use transform="matrix(0.05,0,0,0.05,69.95,0)" xlink:href="#aH"/><use transform="matrix(0.05,0,0,0.05,73.9,0)" xlink:href="#aF"/></g><path d="M117-194c89-4 53 116 60 194h-32v-121c0-31-8-49-39-48C34-167 62-67 57 0H25l-1-190h30c1 10-1 24 2 32 11-22 29-35 61-36" id="bB"/><g id="E"><use transform="matrix(0.05,0,0,0.05,0,0)" xlink:href="#aH"/><use transform="matrix(0.05,0,0,0.05,3.95,0)" xlink:href="#bB"/><use transform="matrix(0.05,0,0,0.05,13.949999999999998,0)" xlink:href="#aE"/></g><path fill="#333" d="M194-120c59 52 2 134-86 124-53-6-90-18-98-63l31-7c8 30 29 43 70 43 46 0 84-17 71-62-32-43-135-20-137-98-3-89 178-90 191-16l-30 9c-8-48-127-53-127 5 0 53 81 35 115 65" id="bC"/><g id="F"><use transform="matrix(0.05,0,0,0.05,0,0)" xlink:href="#bC"/><use transform="matrix(0.05,0,0,0.05,12,0)" xlink:href="#ah"/><use transform="matrix(0.05,0,0,0.05,22,0)" xlink:href="#af"/><use transform="matrix(0.05,0,0,0.05,32,0)" xlink:href="#ak"/><use transform="matrix(0.05,0,0,0.05,37.95,0)" xlink:href="#au"/><use transform="matrix(0.05,0,0,0.05,46.95,0)" xlink:href="#av"/><use transform="matrix(0.05,0,0,0.05,56.95,0)" xlink:href="#ah"/><use transform="matrix(0.05,0,0,0.05,66.95,0)" xlink:href="#am"/></g><g id="G"><use transform="matrix(0.05,0,0,0.05,0,0)" xlink:href="#aN"/><use transform="matrix(0.05,0,0,0.05,10,0)" xlink:href="#am"/><use transform="matrix(0.05,0,0,0.05,19,0)" xlink:href="#ah"/><use transform="matrix(0.05,0,0,0.05,29,0)" xlink:href="#ak"/><use transform="matrix(0.05,0,0,0.05,34.95,0)" xlink:href="#ay"/><use transform="matrix(0.05,0,0,0.05,44.95,0)" xlink:href="#al"/><use transform="matrix(0.05,0,0,0.05,48.900000000000006,0)" xlink:href="#an"/></g><g id="H"><use transform="matrix(0.05,0,0,0.05,0,0)" xlink:href="#bC"/><use transform="matrix(0.05,0,0,0.05,12,0)" xlink:href="#ah"/><use transform="matrix(0.05,0,0,0.05,22,0)" xlink:href="#af"/><use transform="matrix(0.05,0,0,0.05,32,0)" xlink:href="#ak"/><use transform="matrix(0.05,0,0,0.05,37.95,0)" xlink:href="#au"/><use transform="matrix(0.05,0,0,0.05,46.95,0)" xlink:href="#av"/><use transform="matrix(0.05,0,0,0.05,56.95,0)" xlink:href="#bw"/><use transform="matrix(0.05,0,0,0.05,68.95,0)" xlink:href="#ag"/><use transform="matrix(0.05,0,0,0.05,73.95,0)" xlink:href="#ag"/><use transform="matrix(0.05,0,0,0.05,78.95,0)" xlink:href="#ak"/><use transform="matrix(0.05,0,0,0.05,84.9,0)" xlink:href="#al"/><use transform="matrix(0.05,0,0,0.05,88.85000000000001,0)" xlink:href="#bx"/><use transform="matrix(0.05,0,0,0.05,98.85000000000001,0)" xlink:href="#aN"/><use transform="matrix(0.05,0,0,0.05,108.85000000000001,0)" xlink:href="#ag"/><use transform="matrix(0.05,0,0,0.05,113.85000000000001,0)" xlink:href="#ah"/><use transform="matrix(0.05,0,0,0.05,123.85000000000001,0)" xlink:href="#am"/></g><path d="M177-190C167-65 218 103 67 71c-23-6-38-20-44-43l32-5c15 47 100 32 89-28v-30C133-14 115 1 83 1 29 1 15-40 15-95c0-56 16-97 71-98 29-1 48 16 59 35 1-10 0-23 2-32h30zM94-22c36 0 50-32 50-73 0-42-14-75-50-75-39 0-46 34-46 75s6 73 46 73" id="bD"/><path d="M179-190L93 31C79 59 56 82 12 73V49c39 6 53-20 64-50L1-190h34L92-34l54-156h33" id="bE"/><path d="M101-234c-31-9-42 10-38 44h38v23H63V0H32v-167H5v-23h27c-7-52 17-82 69-68v24" id="bF"/><path d="M24 0v-261h32V0H24" id="bG"/><g id="I"><use transform="matrix(0.05,0,0,0.05,0,0)" xlink:href="#aA"/><use transform="matrix(0.05,0,0,0.05,9,0)" xlink:href="#aD"/><use transform="matrix(0.05,0,0,0.05,19,0)" xlink:href="#aE"/><use transform="matrix(0.05,0,0,0.05,24,0)" xlink:href="#aC"/><use transform="matrix(0.05,0,0,0.05,34,0)" xlink:href="#bD"/><use transform="matrix(0.05,0,0,0.05,44,0)" xlink:href="#bA"/><use transform="matrix(0.05,0,0,0.05,54,0)" xlink:href="#aB"/><use transform="matrix(0.05,0,0,0.05,59.95,0)" xlink:href="#bE"/><use transform="matrix(0.05,0,0,0.05,68.95,0)" xlink:href="#aG"/><use transform="matrix(0.05,0,0,0.05,78.95,0)" xlink:href="#bF"/><use transform="matrix(0.05,0,0,0.05,83.95,0)" xlink:href="#aH"/><use transform="matrix(0.05,0,0,0.05,87.9,0)" xlink:href="#aC"/><use transform="matrix(0.05,0,0,0.05,97.9,0)" xlink:href="#bG"/><use transform="matrix(0.05,0,0,0.05,101.85000000000001,0)" xlink:href="#aF"/><use transform="matrix(0.05,0,0,0.05,111.85000000000001,0)" xlink:href="#aG"/><use transform="matrix(0.05,0,0,0.05,121.85000000000001,0)" xlink:href="#aH"/><use transform="matrix(0.05,0,0,0.05,125.80000000000001,0)" xlink:href="#aF"/></g><path d="M135-143c-3-34-86-38-87 0 15 53 115 12 119 90S17 21 10-45l28-5c4 36 97 45 98 0-10-56-113-15-118-90-4-57 82-63 122-42 12 7 21 19 24 35" id="bH"/><path d="M106-169C34-169 62-67 57 0H25v-261h32l-1 103c12-21 28-36 61-36 89 0 53 116 60 194h-32v-121c2-32-8-49-39-48" id="bI"/><g id="J"><use transform="matrix(0.05,0,0,0.05,0,0)" xlink:href="#bH"/><use transform="matrix(0.05,0,0,0.05,9,0)" xlink:href="#aC"/><use transform="matrix(0.05,0,0,0.05,19,0)" xlink:href="#aD"/><use transform="matrix(0.05,0,0,0.05,29,0)" xlink:href="#aB"/><use transform="matrix(0.05,0,0,0.05,34.95,0)" xlink:href="#aA"/><use transform="matrix(0.05,0,0,0.05,43.95,0)" xlink:href="#bI"/><use transform="matrix(0.05,0,0,0.05,53.95,0)" xlink:href="#aG"/><use transform="matrix(0.05,0,0,0.05,63.95,0)" xlink:href="#aH"/><use transform="matrix(0.05,0,0,0.05,67.9,0)" xlink:href="#aF"/></g><g id="K"><use transform="matrix(0.05,0,0,0.05,0,0)" xlink:href="#aj"/><use transform="matrix(0.05,0,0,0.05,10,0)" xlink:href="#az"/><use transform="matrix(0.05,0,0,0.05,20,0)" xlink:href="#ah"/><use transform="matrix(0.05,0,0,0.05,30,0)" xlink:href="#ak"/><use transform="matrix(0.05,0,0,0.05,35.95,0)" xlink:href="#af"/><use transform="matrix(0.05,0,0,0.05,45.95,0)" xlink:href="#ag"/><use transform="matrix(0.05,0,0,0.05,50.95,0)" xlink:href="#aj"/><use transform="matrix(0.05,0,0,0.05,60.95,0)" xlink:href="#ak"/></g><path d="M205 0l-28-72H64L36 0H1l101-248h38L239 0h-34zm-38-99l-47-123c-12 45-31 82-46 123h93" id="bJ"/><g id="L"><use transform="matrix(0.05,0,0,0.05,0,0)" xlink:href="#aA"/><use transform="matrix(0.05,0,0,0.05,9,0)" xlink:href="#aB"/><use transform="matrix(0.05,0,0,0.05,14.949999999999998,0)" xlink:href="#aC"/><use transform="matrix(0.05,0,0,0.05,24.95,0)" xlink:href="#aD"/><use transform="matrix(0.05,0,0,0.05,34.95,0)" xlink:href="#aE"/><use transform="matrix(0.05,0,0,0.05,39.95,0)" xlink:href="#aC"/><use transform="matrix(0.05,0,0,0.05,49.95,0)" xlink:href="#aF"/><use transform="matrix(0.05,0,0,0.05,59.95,0)" xlink:href="#aG"/><use transform="matrix(0.05,0,0,0.05,69.95,0)" xlink:href="#bJ"/><use transform="matrix(0.05,0,0,0.05,81.95,0)" xlink:href="#aE"/></g><path fill="#333" d="M62-99C39-31 123 0 170-40s38-139 58-208h34C234-144 253 4 115 4 49 4 18-43 31-112l26-136h34" id="bK"/><g id="M"><use transform="matrix(0.05,0,0,0.05,0,0)" xlink:href="#bK"/><use transform="matrix(0.05,0,0,0.05,12.950000000000001,0)" xlink:href="#am"/><use transform="matrix(0.05,0,0,0.05,21.950000000000003,0)" xlink:href="#ah"/><use transform="matrix(0.05,0,0,0.05,31.950000000000003,0)" xlink:href="#ak"/><use transform="matrix(0.05,0,0,0.05,37.900000000000006,0)" xlink:href="#am"/></g><g id="N"><use transform="matrix(0.05,0,0,0.05,0,0)" xlink:href="#bz"/><use transform="matrix(0.05,0,0,0.05,5,0)" xlink:href="#al"/><use transform="matrix(0.05,0,0,0.05,8.95,0)" xlink:href="#ak"/><use transform="matrix(0.05,0,0,0.05,14.899999999999999,0)" xlink:href="#am"/><use transform="matrix(0.05,0,0,0.05,23.9,0)" xlink:href="#ag"/><use transform="matrix(0.05,0,0,0.05,28.899999999999995,0)" xlink:href="#ay"/><use transform="matrix(0.05,0,0,0.05,38.9,0)" xlink:href="#ao"/><use transform="matrix(0.05,0,0,0.05,48.9,0)" xlink:href="#af"/><use transform="matrix(0.05,0,0,0.05,58.900000000000006,0)" xlink:href="#as"/><use transform="matrix(0.05,0,0,0.05,73.85,0)" xlink:href="#ah"/></g><g id="O"><use transform="matrix(0.05,0,0,0.05,0,0)" xlink:href="#by"/><use transform="matrix(0.05,0,0,0.05,3.95,0)" xlink:href="#af"/><use transform="matrix(0.05,0,0,0.05,13.949999999999998,0)" xlink:href="#am"/><use transform="matrix(0.05,0,0,0.05,22.95,0)" xlink:href="#ag"/><use transform="matrix(0.05,0,0,0.05,27.950000000000003,0)" xlink:href="#ay"/><use transform="matrix(0.05,0,0,0.05,37.95,0)" xlink:href="#ao"/><use transform="matrix(0.05,0,0,0.05,47.95,0)" xlink:href="#af"/><use transform="matrix(0.05,0,0,0.05,57.95,0)" xlink:href="#as"/><use transform="matrix(0.05,0,0,0.05,72.9,0)" xlink:href="#ah"/></g><g id="P"><use transform="matrix(0.05,0,0,0.05,0,0)" xlink:href="#aN"/><use transform="matrix(0.05,0,0,0.05,10,0)" xlink:href="#am"/><use transform="matrix(0.05,0,0,0.05,19,0)" xlink:href="#ah"/><use transform="matrix(0.05,0,0,0.05,29,0)" xlink:href="#ak"/><use transform="matrix(0.05,0,0,0.05,34.95,0)" xlink:href="#ao"/><use transform="matrix(0.05,0,0,0.05,44.95,0)" xlink:href="#af"/><use transform="matrix(0.05,0,0,0.05,54.95,0)" xlink:href="#as"/><use transform="matrix(0.05,0,0,0.05,69.9,0)" xlink:href="#ah"/></g><path d="M206 0h-36l-40-164L89 0H53L-1-190h32L70-26l43-164h34l41 164 42-164h31" id="bL"/><g id="Q"><use transform="matrix(0.05,0,0,0.05,0,0)" xlink:href="#bI"/><use transform="matrix(0.05,0,0,0.05,10,0)" xlink:href="#aD"/><use transform="matrix(0.05,0,0,0.05,20,0)" xlink:href="#bH"/><use transform="matrix(0.05,0,0,0.05,29,0)" xlink:href="#bI"/><use transform="matrix(0.05,0,0,0.05,39,0)" xlink:href="#aC"/><use transform="matrix(0.05,0,0,0.05,49,0)" xlink:href="#aF"/><use transform="matrix(0.05,0,0,0.05,59,0)" xlink:href="#aG"/><use transform="matrix(0.05,0,0,0.05,69,0)" xlink:href="#aK"/><use transform="matrix(0.05,0,0,0.05,79,0)" xlink:href="#aD"/><use transform="matrix(0.05,0,0,0.05,89,0)" xlink:href="#bH"/><use transform="matrix(0.05,0,0,0.05,98,0)" xlink:href="#bH"/><use transform="matrix(0.05,0,0,0.05,107,0)" xlink:href="#bL"/><use transform="matrix(0.05,0,0,0.05,119.95,0)" xlink:href="#bA"/><use transform="matrix(0.05,0,0,0.05,129.95,0)" xlink:href="#aB"/><use transform="matrix(0.05,0,0,0.05,135.89999999999998,0)" xlink:href="#aF"/></g><path d="M108 0H70L1-190h34L89-25l56-165h34" id="bM"/><path d="M87 75C49 33 22-17 22-94c0-76 28-126 65-167h31c-38 41-64 92-64 168S80 34 118 75H87" id="bN"/><path d="M101-251c82-7 93 87 43 132L82-64C71-53 59-42 53-27h129V0H18c2-99 128-94 128-182 0-28-16-43-45-43s-46 15-49 41l-32-3c6-41 34-60 81-64" id="bO"/><path d="M54-142c48-35 137-8 131 61C196 18 31 33 14-55l32-4c7 23 22 37 52 37 35-1 51-22 54-58 4-55-73-65-99-34H22l8-134h141v27H59" id="bP"/><path d="M33-261c38 41 65 92 65 168S71 34 33 75H2C39 34 66-17 66-93S39-220 2-261h31" id="bQ"/><g id="R"><use transform="matrix(0.05,0,0,0.05,0,0)" xlink:href="#bM"/><use transform="matrix(0.05,0,0,0.05,9,0)" xlink:href="#aD"/><use transform="matrix(0.05,0,0,0.05,19,0)" xlink:href="#aB"/><use transform="matrix(0.05,0,0,0.05,24.95,0)" xlink:href="#aA"/><use transform="matrix(0.05,0,0,0.05,33.95,0)" xlink:href="#bI"/><use transform="matrix(0.05,0,0,0.05,43.95,0)" xlink:href="#aD"/><use transform="matrix(0.05,0,0,0.05,53.95,0)" xlink:href="#aB"/><use transform="matrix(0.05,0,0,0.05,59.900000000000006,0)" xlink:href="#bN"/><use transform="matrix(0.05,0,0,0.05,65.85000000000001,0)" xlink:href="#bO"/><use transform="matrix(0.05,0,0,0.05,75.85000000000001,0)" xlink:href="#bP"/><use transform="matrix(0.05,0,0,0.05,85.85000000000001,0)" xlink:href="#bP"/><use transform="matrix(0.05,0,0,0.05,95.85000000000001,0)" xlink:href="#bQ"/></g><g id="S"><use transform="matrix(0.05,0,0,0.05,0,0)" xlink:href="#aD"/><use transform="matrix(0.05,0,0,0.05,10,0)" xlink:href="#aF"/><use transform="matrix(0.05,0,0,0.05,20,0)" xlink:href="#aF"/><use transform="matrix(0.05,0,0,0.05,30,0)" xlink:href="#aB"/><use transform="matrix(0.05,0,0,0.05,35.95,0)" xlink:href="#aC"/><use transform="matrix(0.05,0,0,0.05,45.95,0)" xlink:href="#bH"/><use transform="matrix(0.05,0,0,0.05,54.95,0)" xlink:href="#bH"/></g><g id="T"><use transform="matrix(0.05,0,0,0.05,0,0)" xlink:href="#aA"/><use transform="matrix(0.05,0,0,0.05,9,0)" xlink:href="#aH"/><use transform="matrix(0.05,0,0,0.05,12.949999999999998,0)" xlink:href="#aE"/><use transform="matrix(0.05,0,0,0.05,17.95,0)" xlink:href="#bE"/></g><g id="U"><use transform="matrix(0.05,0,0,0.05,0,0)" xlink:href="#aA"/><use transform="matrix(0.05,0,0,0.05,9,0)" xlink:href="#bA"/><use transform="matrix(0.05,0,0,0.05,19,0)" xlink:href="#aJ"/><use transform="matrix(0.05,0,0,0.05,29,0)" xlink:href="#bB"/><use transform="matrix(0.05,0,0,0.05,39,0)" xlink:href="#aE"/><use transform="matrix(0.05,0,0,0.05,44,0)" xlink:href="#aB"/><use transform="matrix(0.05,0,0,0.05,49.95,0)" xlink:href="#bE"/></g><path fill="#333" d="M87-220l-18 92h140l-5 28H64L45 0H11l48-248h178l-5 28H87" id="bR"/><g id="V"><use transform="matrix(0.05,0,0,0.05,0,0)" xlink:href="#ae"/><use transform="matrix(0.05,0,0,0.05,12.950000000000001,0)" xlink:href="#af"/><use transform="matrix(0.05,0,0,0.05,22.950000000000003,0)" xlink:href="#ag"/><use transform="matrix(0.05,0,0,0.05,27.950000000000003,0)" xlink:href="#ah"/><use transform="matrix(0.05,0,0,0.05,37.95,0)" xlink:href="#ai"/><use transform="matrix(0.05,0,0,0.05,47.95,0)" xlink:href="#aj"/><use transform="matrix(0.05,0,0,0.05,57.95,0)" xlink:href="#ak"/><use transform="matrix(0.05,0,0,0.05,63.900000000000006,0)" xlink:href="#aL"/><use transform="matrix(0.05,0,0,0.05,72.9,0)" xlink:href="#aM"/><use transform="matrix(0.05,0,0,0.05,84.9,0)" xlink:href="#ak"/><use transform="matrix(0.05,0,0,0.05,90.85000000000001,0)" xlink:href="#aj"/><use transform="matrix(0.05,0,0,0.05,100.85000000000001,0)" xlink:href="#an"/><use transform="matrix(0.05,0,0,0.05,110.85000000000001,0)" xlink:href="#aN"/><use transform="matrix(0.05,0,0,0.05,120.85000000000001,0)" xlink:href="#au"/><use transform="matrix(0.05,0,0,0.05,129.85000000000002,0)" xlink:href="#ag"/><use transform="matrix(0.05,0,0,0.05,134.85000000000002,0)" xlink:href="#bR"/><use transform="matrix(0.05,0,0,0.05,145.8,0)" xlink:href="#al"/><use transform="matrix(0.05,0,0,0.05,149.75,0)" xlink:href="#ah"/><use transform="matrix(0.05,0,0,0.05,159.75,0)" xlink:href="#by"/><use transform="matrix(0.05,0,0,0.05,163.7,0)" xlink:href="#an"/><use transform="matrix(0.05,0,0,0.05,173.7,0)" xlink:href="#am"/></g><g id="W"><use transform="matrix(0.05,0,0,0.05,0,0)" xlink:href="#ag"/><use transform="matrix(0.05,0,0,0.05,5,0)" xlink:href="#aL"/><use transform="matrix(0.05,0,0,0.05,14,0)" xlink:href="#az"/><use transform="matrix(0.05,0,0,0.05,24,0)" xlink:href="#ah"/></g><g id="X"><use transform="matrix(0.05,0,0,0.05,0,0)" xlink:href="#aA"/><use transform="matrix(0.05,0,0,0.05,9,0)" xlink:href="#aD"/><use transform="matrix(0.05,0,0,0.05,19,0)" xlink:href="#aE"/><use transform="matrix(0.05,0,0,0.05,24,0)" xlink:href="#aC"/><use transform="matrix(0.05,0,0,0.05,34,0)" xlink:href="#bD"/><use transform="matrix(0.05,0,0,0.05,44,0)" xlink:href="#bA"/><use transform="matrix(0.05,0,0,0.05,54,0)" xlink:href="#aB"/><use transform="matrix(0.05,0,0,0.05,59.95,0)" xlink:href="#bE"/><use transform="matrix(0.05,0,0,0.05,68.95,0)" xlink:href="#aG"/><use transform="matrix(0.05,0,0,0.05,78.95,0)" xlink:href="#aH"/><use transform="matrix(0.05,0,0,0.05,82.9,0)" xlink:href="#aF"/></g><g id="Y"><use transform="matrix(0.05,0,0,0.05,0,0)" xlink:href="#aK"/><use transform="matrix(0.05,0,0,0.05,10,0)" xlink:href="#bG"/><use transform="matrix(0.05,0,0,0.05,13.949999999999998,0)" xlink:href="#aD"/><use transform="matrix(0.05,0,0,0.05,23.95,0)" xlink:href="#aA"/><use transform="matrix(0.05,0,0,0.05,32.95,0)" xlink:href="#aC"/><use transform="matrix(0.05,0,0,0.05,42.95,0)" xlink:href="#aI"/><use transform="matrix(0.05,0,0,0.05,57.900000000000006,0)" xlink:href="#aC"/><use transform="matrix(0.05,0,0,0.05,67.9,0)" xlink:href="#bB"/><use transform="matrix(0.05,0,0,0.05,77.9,0)" xlink:href="#aE"/><use transform="matrix(0.05,0,0,0.05,82.9,0)" xlink:href="#aG"/><use transform="matrix(0.05,0,0,0.05,92.9,0)" xlink:href="#aD"/><use transform="matrix(0.05,0,0,0.05,102.9,0)" xlink:href="#aB"/><use transform="matrix(0.05,0,0,0.05,108.85000000000001,0)" xlink:href="#aC"/><use transform="matrix(0.05,0,0,0.05,118.85000000000001,0)" xlink:href="#aD"/><use transform="matrix(0.05,0,0,0.05,128.85000000000002,0)" xlink:href="#bH"/></g><g id="Z"><use transform="matrix(0.05,0,0,0.05,0,0)" xlink:href="#bH"/><use transform="matrix(0.05,0,0,0.05,9,0)" xlink:href="#bI"/><use transform="matrix(0.05,0,0,0.05,19,0)" xlink:href="#bA"/><use transform="matrix(0.05,0,0,0.05,29,0)" xlink:href="#bL"/><use transform="matrix(0.05,0,0,0.05,41.95,0)" xlink:href="#aG"/><use transform="matrix(0.05,0,0,0.05,51.95,0)" xlink:href="#bA"/><use transform="matrix(0.05,0,0,0.05,61.95,0)" xlink:href="#bB"/><use transform="matrix(0.05,0,0,0.05,71.95,0)" xlink:href="#aG"/><use transform="matrix(0.05,0,0,0.05,81.95,0)" xlink:href="#bF"/><use transform="matrix(0.05,0,0,0.05,86.95,0)" xlink:href="#aH"/><use transform="matrix(0.05,0,0,0.05,90.9,0)" xlink:href="#bG"/><use transform="matrix(0.05,0,0,0.05,94.85000000000001,0)" xlink:href="#aE"/><use transform="matrix(0.05,0,0,0.05,99.85000000000001,0)" xlink:href="#aC"/><use transform="matrix(0.05,0,0,0.05,109.85000000000001,0)" xlink:href="#aB"/></g><g id="aa"><use transform="matrix(0.05,0,0,0.05,0,0)" xlink:href="#aE"/><use transform="matrix(0.05,0,0,0.05,5,0)" xlink:href="#aH"/><use transform="matrix(0.05,0,0,0.05,8.95,0)" xlink:href="#bB"/><use transform="matrix(0.05,0,0,0.05,18.95,0)" xlink:href="#bE"/><use transform="matrix(0.05,0,0,0.05,27.950000000000003,0)" xlink:href="#aH"/><use transform="matrix(0.05,0,0,0.05,31.899999999999995,0)" xlink:href="#bB"/><use transform="matrix(0.05,0,0,0.05,41.9,0)" xlink:href="#aE"/></g><g id="ab"><use transform="matrix(0.05,0,0,0.05,0,0)" xlink:href="#aA"/><use transform="matrix(0.05,0,0,0.05,9,0)" xlink:href="#aB"/><use transform="matrix(0.05,0,0,0.05,14.949999999999998,0)" xlink:href="#aC"/><use transform="matrix(0.05,0,0,0.05,24.95,0)" xlink:href="#aD"/><use transform="matrix(0.05,0,0,0.05,34.95,0)" xlink:href="#aE"/><use transform="matrix(0.05,0,0,0.05,39.95,0)" xlink:href="#aC"/><use transform="matrix(0.05,0,0,0.05,49.95,0)" xlink:href="#aG"/><use transform="matrix(0.05,0,0,0.05,59.95,0)" xlink:href="#aD"/><use transform="matrix(0.05,0,0,0.05,69.95,0)" xlink:href="#aE"/></g><path fill="#333" d="M11 0l48-248h184l-5 28H87l-15 79h140l-5 27H67L50-27h158l-5 27H11" id="bS"/><g id="ac"><use transform="matrix(0.05,0,0,0.05,0,0)" xlink:href="#bS"/><use transform="matrix(0.05,0,0,0.05,12,0)" xlink:href="#as"/><use transform="matrix(0.05,0,0,0.05,26.950000000000003,0)" xlink:href="#af"/><use transform="matrix(0.05,0,0,0.05,36.95,0)" xlink:href="#al"/><use transform="matrix(0.05,0,0,0.05,40.900000000000006,0)" xlink:href="#by"/><use transform="matrix(0.05,0,0,0.05,44.85000000000001,0)" xlink:href="#bw"/><use transform="matrix(0.05,0,0,0.05,56.85,0)" xlink:href="#by"/><use transform="matrix(0.05,0,0,0.05,60.80000000000001,0)" xlink:href="#ah"/><use transform="matrix(0.05,0,0,0.05,70.80000000000001,0)" xlink:href="#ak"/><use transform="matrix(0.05,0,0,0.05,76.75000000000001,0)" xlink:href="#ag"/><use transform="matrix(0.05,0,0,0.05,81.75000000000001,0)" xlink:href="#am"/></g><g id="ad"><use transform="matrix(0.05,0,0,0.05,0,0)" xlink:href="#aJ"/><use transform="matrix(0.05,0,0,0.05,10,0)" xlink:href="#bH"/><use transform="matrix(0.05,0,0,0.05,19,0)" xlink:href="#aC"/><use transform="matrix(0.05,0,0,0.05,29,0)" xlink:href="#aB"/><use transform="matrix(0.05,0,0,0.05,34.95,0)" xlink:href="#aG"/><use transform="matrix(0.05,0,0,0.05,44.95,0)" xlink:href="#aH"/><use transform="matrix(0.05,0,0,0.05,48.900000000000006,0)" xlink:href="#aF"/></g></defs></g></svg>